/vscmnt/brussel_pixiu_data/_data_brussel/112/vsc11236/PredSimResults/SUBJ07opt3D/trackIG/worker_14.mot
version=1
nRows=11
nColumns=50
inDegrees=yes
endheader
                time	         pelvis_tilt	         pelvis_list	     pelvis_rotation	           pelvis_tx	           pelvis_ty	           pelvis_tz	       hip_flexion_r	     hip_adduction_r	      hip_rotation_r	        knee_angle_r	       ankle_angle_r	         mtp_angle_r	       hip_flexion_l	     hip_adduction_l	      hip_rotation_l	        knee_angle_l	       ankle_angle_l	         mtp_angle_l	    lumbar_extension	      lumbar_bending	     lumbar_rotation	 ercspn_r/activation	 intobl_r/activation	 extobl_r/activation	    abd_r/activation	    add_r/activation	hamstrings_r/activation	bifemsh_r/activation	glut_max_r/activation	iliopsoas_r/activation	rect_fem_r/activation	  vasti_r/activation	gastroc_r/activation	 soleus_r/activation	tib_ant_r/activation	 ercspn_l/activation	 intobl_l/activation	 extobl_l/activation	    abd_l/activation	    add_l/activation	hamstrings_l/activation	bifemsh_l/activation	glut_max_l/activation	iliopsoas_l/activation	rect_fem_l/activation	  vasti_l/activation	gastroc_l/activation	 soleus_l/activation	tib_ant_l/activation	
          0.00000000	         -8.83569243	         -1.32048910	          1.91126749	          0.00000000	          0.85867591	          0.00008026	         34.17194260	          3.11401546	          4.01225641	        -23.83132684	          5.81891646	          0.44542605	        -12.15273110	          0.69117356	         -2.04095970	        -18.96391665	        -15.21020333	         32.77166902	         -7.37272597	          2.63456333	         -6.01969809	          0.19322743	          0.02218695	          0.00999999	          0.06413443	          0.16934699	          0.40711782	          0.28436440	          0.10054945	          0.02004068	          0.00999999	          0.00999999	          0.01120578	          0.00999999	          0.53617333	          0.10297543	          0.00999999	          0.00999999	          0.01407108	          0.12752201	          0.02759561	          0.05511788	          0.01407107	          0.82479121	          0.21148679	          0.01654965	          0.12247938	          0.09331055	          0.00999999	
          0.00723475	         -8.79150019	         -1.18705346	          1.86513303	          0.01539815	          0.85560182	          0.00020205	         33.81051079	          3.24824188	          4.31485556	        -24.66226494	          5.50567937	          0.43271423	        -12.12220638	          0.77310550	         -2.21892443	        -20.71814334	        -16.00149184	         32.10420275	         -7.21549911	          2.73865421	         -5.98787392	          0.17935549	          0.01979953	          0.01000000	          0.05723329	          0.19530440	          0.36331016	          0.25376554	          0.15328161	          0.01788421	          0.00999999	          0.01000000	          0.00999999	          0.00999999	          0.47847873	          0.13379505	          0.00999999	          0.00999999	          0.01255697	          0.11479932	          0.02985673	          0.04918702	          0.01255697	          0.76203391	          0.18872988	          0.01476883	          0.10930006	          0.08326992	          0.00999999	
          0.01446951	         -8.74245710	         -1.07422490	          1.81385916	          0.03081843	          0.85231659	          0.00031875	         33.48149536	          3.39516217	          4.66614376	        -26.19763014	          5.84321500	          0.39166522	        -11.87221245	          0.82392789	         -2.34459299	        -22.85479965	        -16.82443499	         31.26099012	         -7.05237280	          2.86904766	         -5.92670560	          0.16005606	          0.01766902	          0.00999999	          0.12269483	          0.20857159	          0.32421640	          0.22645926	          0.21374050	          0.01595979	          0.00999999	          0.00999999	          0.01120578	          0.08509724	          0.42699232	          0.18481844	          0.00999999	          0.00999999	          0.01120578	          0.10244641	          0.03043266	          0.09781373	          0.01120578	          0.68003572	          0.16842172	          0.01317964	          0.09753889	          0.07430971	          0.00999999	
          0.02170426	         -8.69028239	         -0.98598928	          1.74710773	          0.04615874	          0.84896119	          0.00043239	         33.19574604	          3.53401965	          4.95906510	        -27.96307766	          7.00934358	          0.62325502	        -11.39566232	          0.84556467	         -2.42507081	        -25.33441212	        -17.77917461	         30.22031022	         -6.89588040	          3.02731919	         -5.82879277	          0.14283333	          0.01576775	          0.00999999	          0.23684613	          0.21290546	          0.28932929	          0.20209125	          0.23296159	          0.01424245	          0.00999999	          0.10930733	          0.00999999	          0.10566313	          0.38104607	          0.25291047	          0.00999999	          0.00999999	          0.00999999	          0.09142273	          0.02788634	          0.08728855	          0.00999999	          0.60686090	          0.15029880	          0.01176145	          0.08704328	          0.06631366	          0.00999999	
          0.02893902	         -8.63797148	         -0.92264687	          1.65585712	          0.06129222	          0.84578277	          0.00055011	         32.96147777	          3.66934477	          5.12338019	        -29.89082958	          8.87721562	          1.16660023	        -10.68339894	          0.84474266	         -2.46523956	        -28.10089615	        -18.92351396	         28.85194515	         -6.76139440	          3.20950296	         -5.68917751	          0.12746384	          0.01407107	          0.00999999	          0.30675394	          0.22979199	          0.25819619	          0.18034534	          0.22074738	          0.01270990	          0.00999999	          0.18594454	          0.01120579	          0.14323070	          0.34004385	          0.30756582	          0.01454190	          0.00999999	          0.00999999	          0.08523569	          0.02488565	          0.07789592	          0.01000000	          0.54156001	          0.13412600	          0.01049587	          0.07767704	          0.05917802	          0.06163730	
          0.03617377	         -8.58781399	         -0.89254609	          1.55204465	          0.07616235	          0.84295300	          0.00066703	         32.72264771	          3.82907080	          5.25071885	        -31.79394063	         10.86095449	          1.90829323	         -9.74660018	          0.81795433	         -2.45140310	        -31.11228264	        -20.09912710	         26.91908684	         -6.65290914	          3.41942469	         -5.52183233	          0.11676266	          0.01255697	          0.00999999	          0.34399976	          0.24039386	          0.23041315	          0.16093939	          0.21370061	          0.01134226	          0.00999999	          0.22581976	          0.00999999	          0.18063566	          0.30345364	          0.34460942	          0.04342866	          0.00999999	          0.01033907	          0.07606395	          0.02220785	          0.06951398	          0.00999999	          0.48328578	          0.12494215	          0.00999999	          0.06931865	          0.05281021	          0.16546047	
          0.04340853	         -8.54086461	         -0.88655435	          1.43898048	          0.09076193	          0.84052390	          0.00078004	         32.43126113	          4.00627294	          5.37503204	        -33.52459747	         12.60188119	          2.76288810	         -8.62994545	          0.78761161	         -2.37968253	        -34.28229501	        -20.90808477	         24.58257107	         -6.56925632	          3.64133089	         -5.33055214	          0.11150203	          0.01120578	          0.00999999	          0.35719391	          0.22987431	          0.20561968	          0.14362161	          0.19070549	          0.01012178	          0.00999999	          0.28836154	          0.00999999	          0.22110972	          0.27080070	          0.35805259	          0.06556705	          0.00999999	          0.01085143	          0.06787914	          0.01981819	          0.06203398	          0.00999999	          0.43128211	          0.11149783	          0.00999999	          0.06185966	          0.04712760	          0.15985374	
          0.05064328	         -8.49838694	         -0.89658888	          1.31812731	          0.10511943	          0.83852715	          0.00088019	         32.03798269	          4.18614988	          5.49885477	        -34.99335960	         14.09010476	          3.69552508	         -7.38271335	          0.76966415	         -2.26792453	        -37.48550903	        -20.93613782	         22.39859335	         -6.50551816	          3.86371242	         -5.11581111	          0.10124423	          0.00999999	          0.00999999	          0.35286871	          0.20513883	          0.18349410	          0.12816730	          0.17018474	          0.00999999	          0.00999999	          0.33052126	          0.00999999	          0.25659569	          0.24166135	          0.34382148	          0.07566134	          0.00999999	          0.00999999	          0.06057505	          0.01768566	          0.06856408	          0.00999999	          0.38487426	          0.09950018	          0.00999999	          0.05520329	          0.04205646	          0.19475429	
          0.05787803	         -8.46191756	         -0.91736389	          1.19067042	          0.11925317	          0.83700417	          0.00095989	         31.51934622	          4.35828905	          5.62199406	        -36.16281383	         15.35616764	          4.67689590	         -6.02464769	          0.76631063	         -2.13234846	        -40.64619432	        -20.50227637	         20.41712539	         -6.46012090	          4.08072956	         -4.87802797	          0.09034990	          0.00999999	          0.00999999	          0.34451006	          0.18306499	          0.16374933	          0.11437593	          0.15187212	          0.00999999	          0.00999999	          0.36062170	          0.00999999	          0.28897719	          0.21565753	          0.32645853	          0.08492279	          0.00999999	          0.00999999	          0.05405690	          0.01578261	          0.09930422	          0.00999999	          0.34346010	          0.08879352	          0.00999999	          0.04926317	          0.03753100	          0.20490540	
          0.06511279	         -8.43272049	         -0.94928688	          1.05796332	          0.13317227	          0.83597311	          0.00101528	         30.87412365	          4.52066509	          5.74408206	        -37.02935692	         16.41148368	          5.68619958	         -4.56846810	          0.77122275	         -1.98891715	        -43.71363745	        -19.85072340	         18.61386038	         -6.43322119	          4.29323382	         -4.61748499	          0.08062786	          0.00999999	          0.00999999	          0.33550917	          0.16336640	          0.14612919	          0.10206858	          0.13553001	          0.00999999	          0.00999999	          0.40381261	          0.00999999	          0.31763619	          0.19245184	          0.31941679	          0.10189921	          0.00999999	          0.00999999	          0.04824015	          0.01408433	          0.12337476	          0.00999999	          0.30650229	          0.07923895	          0.00999999	          0.04396224	          0.03349250	          0.20449641	
          0.07234754	         -8.41158901	         -0.99096633	          0.92184610	          0.14689617	          0.83544328	          0.00104683	         30.09592012	          4.66939508	          5.86561729	        -37.58159815	         17.27072320	          6.70736513	         -3.02906831	          0.77896988	         -1.84994564	        -46.64784417	        -19.06962223	         16.96984224	         -6.42348303	          4.49867344	         -4.33523426	          0.07195195	          0.00999999	          0.00999999	          0.32953290	          0.14578746	          0.13040505	          0.09108555	          0.12094639	          0.00999999	          0.00999999	          0.42114235	          0.00999999	          0.34229903	          0.17174318	          0.30966987	          0.10983746	          0.00999999	          0.00999999	          0.04304929	          0.01256880	          0.15207503	          0.00999999	          0.27352130	          0.07071249	          0.00999999	          0.03923171	          0.02988856	          0.20108413	
